<mxfile host="app.diagrams.net" modified="2023-08-11T18:48:39.688Z" agent="Mozilla/5.0 (Windows NT 10.0; Win64; x64) AppleWebKit/537.36 (KHTML, like Gecko) Chrome/115.0.0.0 Safari/537.36" version="21.6.8" etag="px0WL5koO7OiOpE77YeZ" type="github">
  <diagram name="Page-1" id="zG2DAtO2zv-35iVoFyX1">
    <mxGraphModel>
      <root>
        <mxCell id="0" />
        <mxCell id="1" parent="0" />
      </root>
    </mxGraphModel>
  </diagram>
</mxfile>
